<svg width="29" height="25" viewBox="0 0 29 25" fill="none" xmlns="http://www.w3.org/2000/svg">
  <path d="M14.5 0C6.50688 0 0 4.78055 0 10.6557C0 15.9178 5.15958 20.3266 12.1256 21.1647C12.5981 21.2549 13.2409 21.4473 13.404 21.8103C13.549 22.1397 13.4995 22.6484 13.45 22.9919L13.2518 24.1071C13.1974 24.4365 12.9618 25.4039 14.5193 24.8126C16.0793 24.2234 22.8762 20.3516 25.9212 17.183C28.0043 15.1178 29 13.0014 29 10.6557C29 4.78055 22.4931 0 14.5 0ZM8.82446 14.1493H5.94137C5.5245 14.1493 5.18013 13.8373 5.18013 13.4612V8.2426C5.18013 7.86541 5.5245 7.55345 5.94137 7.55345C6.36188 7.55345 6.70263 7.86541 6.70263 8.2426V12.7721H8.82446C9.24496 12.7721 9.5845 13.0818 9.5845 13.4612C9.5845 13.8373 9.24375 14.1493 8.82446 14.1493ZM11.8042 13.4612C11.8042 13.8373 11.4635 14.1493 11.0417 14.1493C10.6249 14.1493 10.2841 13.8373 10.2841 13.4612V8.2426C10.2841 7.86541 10.6249 7.55345 11.0454 7.55345C11.4635 7.55345 11.8042 7.86541 11.8042 8.2426V13.4612ZM18.7413 13.4612C18.7413 13.7569 18.531 14.0188 18.2193 14.1134C18.1419 14.1362 18.0585 14.1471 17.9788 14.1471C17.7238 14.1471 17.5063 14.0482 17.3625 13.8732L14.4106 10.2448V13.4601C14.4106 13.8362 14.0735 14.1482 13.6481 14.1482C13.23 14.1482 12.8917 13.8362 12.8917 13.4601V8.2426C12.8917 7.94694 13.1007 7.68497 13.4113 7.59149C13.4838 7.56649 13.5756 7.55562 13.6457 7.55562C13.8813 7.55562 14.0988 7.66975 14.2438 7.83389L17.2188 11.4764V8.2426C17.2188 7.86541 17.5595 7.55345 17.98 7.55345C18.3969 7.55345 18.7413 7.86541 18.7413 8.2426V13.4612ZM23.3994 10.1622C23.8211 10.1622 24.1606 10.4742 24.1606 10.8524C24.1606 11.2296 23.8211 11.5416 23.3994 11.5416H21.2788V12.7721H23.3994C23.8211 12.7721 24.1606 13.0818 24.1606 13.4612C24.1606 13.8373 23.8211 14.1493 23.3994 14.1493H20.5163C20.0994 14.1493 19.7587 13.8373 19.7587 13.4612V8.2426C19.7587 7.86541 20.0994 7.55345 20.5199 7.55345H23.403C23.8211 7.55345 24.1606 7.86541 24.1606 8.2426C24.1606 8.62413 23.8211 8.93174 23.3994 8.93174H21.2788V10.1622H23.3994Z" fill="white" />
</svg>