<svg width="259" height="366" viewBox="0 0 259 366" fill="none" xmlns="http://www.w3.org/2000/svg">
<path d="M-1.42568 85.1676C4.61358 82.6008 10.5437 80.742 16.2876 79.6211C25.3862 77.8448 34.0835 77.9118 42.1371 79.8223C50.9821 81.9204 57.9662 86.8935 62.3312 94.2051C66.2851 100.83 67.9907 109.021 67.2588 117.892L67.2552 117.932L67.2143 117.95C48.5553 126.356 35.4962 140.917 32.2845 156.902C29.4427 171.045 34.471 185.401 46.4431 197.321L47.8187 198.648L47.7159 198.754C47.7159 198.754 47.7388 198.765 47.7601 198.759C47.7795 198.753 47.7901 198.741 47.7922 198.734L47.7703 198.867L47.6632 198.781C21.4038 176.779 -16.7113 177.501 -48.1739 190.874C-58.23 195.148 -67.5988 200.71 -75.6948 207.238L-75.7604 207.29L-75.8082 207.223C-80.4347 200.813 -82.8064 193.335 -82.8512 184.998C-82.8916 177.693 -81.1567 169.673 -77.6909 161.164C-69.9422 142.133 -55.8564 126.134 -50.1595 120.137C-43.0564 112.661 -28.257 98.6375 -8.93739 88.6949C-6.41814 87.399 -3.90942 86.2186 -1.42106 85.1624L-1.42568 85.1676ZM67.1053 117.839C68.341 102.681 62.4226 84.7821 42.0978 79.9598C26.7747 76.3245 9.62741 79.3079 -8.86668 88.8246C-28.1667 98.7557 -42.953 112.768 -50.0476 120.237C-55.7385 126.226 -69.8104 142.209 -77.5496 161.218C-85.0223 179.57 -84.4103 195 -75.7308 207.079C-58.8852 193.514 -36.7089 184.347 -14.8781 181.926C-3.20911 180.632 7.93728 181.278 18.25 183.847C29.0051 186.527 38.6178 191.256 46.841 197.912L46.3309 197.419C40.1225 191.237 35.7753 184.49 33.4098 177.363C31.1789 170.648 30.7501 163.753 32.1324 156.872C33.7162 148.993 37.7312 141.273 43.7434 134.543C49.7839 127.784 57.8636 122.006 67.106 117.835L67.1053 117.839Z" fill="#FA6D01"/>
<path d="M49.0535 199.785C49.2321 199.709 49.4788 199.677 49.7932 199.69L49.8215 199.692L51.314 200.992C57.2976 206.063 64.0971 210.441 71.4698 214.096C79.3167 206.882 90.5965 197.86 104.087 190.905C112.484 186.576 120.734 183.596 128.608 182.047C137.451 180.306 145.899 180.362 153.719 182.213C162.336 184.252 169.125 189.086 173.352 196.192C177.182 202.631 178.818 210.6 178.081 219.238L178.077 219.282L178.033 219.299C158.19 226.781 134.666 229.236 111.795 226.211C100.243 224.683 89.2504 221.821 79.1231 217.705C76.5039 216.641 73.9593 215.499 71.4929 214.28C68.5014 217.034 66.0142 219.52 64.0976 221.523C64.0343 221.588 63.9697 221.656 63.9084 221.721C63.9417 221.802 63.9745 221.882 64.0072 221.961C66.0621 227.021 67.4134 232.432 68.0237 238.043C69.1935 248.794 67.6325 260.165 63.5056 270.925C58.548 283.855 49.9396 296.198 38.613 306.614L38.546 306.675L38.4945 306.603C33.9808 300.334 31.688 293.017 31.6814 284.853C31.6751 277.701 33.413 269.85 36.8507 261.519C44.4244 243.157 57.9706 227.741 63.7253 221.695C61.603 216.56 58.7457 211.746 55.1703 207.38C54.9457 207.107 54.333 206.549 53.5564 205.842C50.782 203.319 48.327 200.976 48.7593 200.051C48.8142 199.935 48.914 199.845 49.0574 199.784L49.0535 199.785ZM49.7577 199.832C49.2808 199.817 48.9908 199.91 48.8973 200.108C48.4705 201.018 51.7199 203.973 53.6603 205.739C54.4408 206.451 55.0585 207.012 55.2899 207.293C58.8323 211.616 61.7086 216.417 63.8441 221.566C63.8896 221.517 63.9357 221.471 63.9798 221.424C65.8925 219.428 68.3698 216.951 71.3476 214.208C63.8835 210.509 57.1331 206.118 51.2093 201.099L49.7577 199.832ZM177.93 219.18C179.173 204.434 173.457 187.03 153.68 182.351C138.817 178.834 122.156 181.755 104.162 191.03C90.7063 197.966 79.4522 206.963 71.6139 214.165C102.658 229.491 143.897 231.997 177.93 219.18ZM38.5689 306.449C49.8467 296.059 58.4167 283.761 63.3572 270.875C69.8306 253.993 69.8384 236.61 63.784 221.846C41.1113 245.665 21.0277 281.961 38.5689 306.449Z" fill="#FA6D01"/>
<path d="M-48.5628 190.776C-44.9652 189.246 -41.2631 187.884 -37.4695 186.694C-27.6001 183.598 -17.6018 181.83 -7.75277 181.443C14.0844 180.582 33.2805 186.543 47.7633 198.677C60.2289 209.186 67.4804 223.408 68.7375 239.808C69.8878 254.811 65.8605 270.791 57.399 284.804C52.7774 292.457 46.9596 299.618 40.1092 306.083C33.3673 312.446 25.7412 318.028 17.4456 322.675C0.373155 332.237 -18.5632 337.339 -37.3179 337.435C-54.543 337.522 -71.25 332.689 -84.3622 323.83C-91.1167 319.266 -96.7476 313.767 -101.102 307.487C-105.692 300.865 -108.775 293.484 -110.269 285.547C-113.299 269.446 -110.056 252.441 -100.894 236.367C-92.5785 221.78 -79.5904 208.496 -64.3197 198.962C-59.3529 195.86 -54.0797 193.124 -48.5641 190.778L-48.5628 190.776ZM47.6605 198.784C16.4276 172.615 -32.2699 179.124 -64.232 199.079C-91.9153 216.362 -116.838 249.793 -110.116 285.521C-104.346 316.189 -74.4093 337.477 -37.3189 337.291C0.386977 337.102 38.3965 315.98 57.2638 284.736C72.2659 259.891 75.6561 222.392 47.6605 198.784Z" fill="#FA6D01"/>
<path d="M-2.03381 86.1171C5.95709 82.7208 13.6057 80.4308 20.7191 79.3062C27.6932 78.2037 34.1839 78.2242 40.0881 79.3578C41.7051 78.4999 43.3262 77.6606 44.9507 76.838C50.4628 74.0534 55.9013 71.5206 61.2494 69.2465C91.8027 56.2589 119.627 51.637 144.165 55.4986C154.631 57.1463 163.946 60.5243 171.848 65.5421C179.233 70.2307 185.423 76.3661 190.248 83.7809C194.784 90.7514 198.097 98.8163 200.095 107.749C201.999 116.263 202.683 125.428 202.129 134.988L202.119 135.144L201.998 135.037C177.57 113.416 136.628 103.275 97.6954 109.201C86.707 110.874 76.4528 113.816 67.2132 117.95L67.095 118.004L67.2985 114.292C67.5676 97.9446 59.3218 85.4377 45.2388 80.8334C43.582 80.2921 41.8746 79.8481 40.1204 79.5063C11.5623 94.6487 -14.967 114.996 -38.8033 140.047C-54.6087 156.659 -69.4316 175.628 -81.0439 195.503C-80.0399 199.561 -78.3237 203.493 -75.6849 207.15L-75.6463 207.202L-75.6981 207.245C-84.1839 214.135 -92.008 222.735 -98.146 232.387C-108.351 262.67 -108.524 292.992 -91.3969 318.595L-91.0629 319.095L-91.5179 318.685C-98.3282 312.533 -103.676 304.963 -106.982 296.789C-113.098 281.666 -112.854 264.759 -106.27 247.895C-104.192 242.571 -101.504 237.326 -98.2911 232.277C-97.3722 229.573 -96.3629 226.847 -95.2657 224.098C-91.5415 214.761 -86.8202 205.207 -81.1649 195.542C-82.1068 191.702 -82.4654 187.545 -82.235 183.096C-81.8421 175.482 -79.7599 167.184 -76.0499 158.43C-69.6775 143.4 -59.5205 128.791 -46.6735 116.183C-33.8936 103.642 -18.767 93.3794 -2.92769 86.5034C-2.63038 86.3748 -2.33112 86.2457 -2.03514 86.1195L-2.03381 86.1171ZM39.8929 79.461C28.0163 77.1997 13.9791 79.4696 -1.93772 86.2336C-2.24474 86.365 -2.55177 86.4963 -2.86206 86.6306C-35.0528 100.6 -63.0404 128.131 -75.9065 158.478C-80.3538 168.966 -84.147 182.771 -81.0743 195.379C-77.7369 189.688 -74.0768 183.958 -70.1035 178.211C-61.0104 165.063 -50.2281 151.831 -38.921 139.949C-26.7464 127.152 -13.6278 115.394 0.0677151 105.001C12.8464 95.3028 26.2201 86.7303 39.8929 79.461ZM201.981 134.827C203.881 101.215 189.689 62.8116 144.139 55.6424C115.341 51.109 81.994 58.284 45.0253 76.9666C43.4476 77.7639 41.8786 78.5744 40.3137 79.4036C42.0237 79.7403 43.6825 80.1725 45.2896 80.6985C52.5707 83.079 58.4493 87.6605 62.2869 93.9474C65.7927 99.6901 67.5798 106.726 67.4545 114.295L67.2658 117.77C76.4855 113.658 86.7163 110.729 97.6718 109.06C116.041 106.263 135.25 106.956 153.22 111.064C172.488 115.467 189.346 123.684 201.986 134.827L201.981 134.827ZM-75.8506 207.176C-78.3164 203.745 -80.0821 199.895 -81.1344 195.659C-88.0098 207.448 -93.756 219.552 -97.9018 231.67C-92.0595 222.631 -84.5411 214.243 -75.8506 207.176ZM-91.8624 318.166C-100.725 304.709 -105.283 289.378 -105.41 272.586C-105.504 260.195 -103.195 246.917 -98.5375 233.006C-110.377 251.935 -115.701 274.818 -106.836 296.736C-103.612 304.708 -98.4405 312.106 -91.8624 318.166Z" fill="#FA6D01"/>
<path d="M60.4034 69.2975C80.3924 60.8005 100.051 55.8765 118.954 54.6392C136.679 53.4788 161.736 55.4418 180.442 71.3775C195.038 83.8131 202.272 102.207 202.555 127.611L202.557 127.615L202.129 134.958C209.072 141.158 214.17 147.891 217.278 154.971C222.977 167.947 221.704 181.248 213.595 193.437C210.002 198.838 205.193 203.842 199.301 208.304C193.67 212.571 187.33 216.141 180.461 218.915L180.343 218.962L180.352 218.843C181.646 203.674 175.789 185.763 155.463 180.987C140.129 177.382 122.961 180.413 104.44 189.989C85.1534 199.961 70.336 214.008 63.2206 221.492C57.5165 227.492 43.4093 243.497 35.6161 262.484C28.0545 280.9 28.6353 296.371 37.3422 308.462L37.3782 308.513L37.3303 308.554C33.46 311.943 29.3599 315.089 25.1394 317.904C9.53069 328.314 -9.28942 335.078 -27.8555 336.951C-48.3835 339.02 -67.287 335.048 -82.5217 325.46C-91.3132 319.928 -97.6676 312.072 -101.405 302.112C-104.658 293.446 -105.965 283.122 -105.29 271.425C-103.813 245.818 -93.3938 221.084 -88.9835 211.637C-71.295 173.754 -41.9838 138.06 -4.21615 108.412C14.7688 93.509 34.0392 81.4479 53.0606 72.5653C55.5113 71.4212 57.96 70.329 60.4011 69.2903L60.4034 69.2975ZM202.4 127.61C202.115 102.25 194.899 83.8883 180.337 71.4826C161.673 55.5824 136.661 53.624 118.965 54.7819C98.4751 56.1228 78.7393 61.7161 60.5936 69.4284C35.1294 80.2516 12.7983 95.2475 -4.1168 108.526C-41.8655 138.16 -71.1614 173.837 -88.8423 211.697C-93.2492 221.135 -103.659 245.851 -105.136 271.434C-106.601 296.803 -98.963 314.941 -82.434 325.341C-48.4391 346.734 -2.88813 336.422 25.0504 317.79C29.2467 314.991 33.3271 311.863 37.1763 308.493C32.5817 302.09 30.2432 294.622 30.2232 286.296C30.2066 278.986 31.9727 270.957 35.4702 262.435C43.2749 243.425 57.396 227.404 63.1041 221.397C70.2255 213.905 85.0554 199.845 104.364 189.863C113.008 185.394 121.505 182.314 129.62 180.709C138.73 178.906 147.438 178.954 155.5 180.848C164.342 182.927 171.312 187.889 175.654 195.195C179.567 201.78 181.246 209.918 180.514 218.736C206.951 208.02 229.656 183.536 217.132 155.024C214.027 147.955 208.933 141.231 201.994 135.038L201.97 135.015L201.972 134.983L202.4 127.61Z" fill="#FA6D01"/>
<path d="M47.6976 198.629C47.7294 198.616 47.7641 198.618 47.7977 198.636L47.8319 198.656L47.8322 198.669C54.2709 204.7 61.81 209.859 70.104 214.086C82.6516 202.535 97.1532 193.148 112.248 186.844C125.493 181.309 144.677 176.068 160.853 182.528C168.202 185.463 173.64 190.499 177.017 197.492C179.971 203.607 181.176 210.994 180.506 218.856L180.501 218.899L180.458 218.917C170.148 223.047 158.807 225.805 146.743 227.113C145.531 227.246 144.317 227.36 143.101 227.462C155.929 226.362 168.583 223.511 180.354 218.801C181.805 201.642 174.493 188.133 160.793 182.66C144.67 176.22 125.53 181.451 112.312 186.974C97.0428 193.353 82.6467 202.789 70.2798 214.174C82.605 220.428 96.6005 224.641 111.159 226.641C111.015 226.621 110.868 226.602 110.723 226.581C98.4796 224.892 86.9257 221.727 76.3818 217.176C74.2582 216.26 72.1872 215.291 70.172 214.272C68.0977 216.184 66.0804 218.153 64.1261 220.171C67.2316 227.216 68.8738 234.897 68.97 243.049C69.2432 266.006 57.1177 291.105 37.3275 308.555L37.2599 308.614L37.2089 308.543C32.4038 301.871 30.2706 293.62 30.8718 284.023C31.3529 276.323 33.5552 267.919 37.4165 259.046C43.4055 245.28 52.522 231.908 63.9298 220.111C60.3721 212.088 54.9084 204.898 47.656 198.785L47.6264 198.76L47.6311 198.723C47.639 198.663 47.6717 198.64 47.6918 198.631C47.6918 198.631 47.6957 198.629 47.6976 198.629ZM69.9968 214.186C63.2531 210.762 57.1275 206.774 51.6903 202.267C57.0156 207.544 61.1542 213.496 64.0457 219.993C65.1994 218.802 66.3771 217.626 67.5782 216.469C68.3767 215.7 69.1815 214.937 69.9968 214.186ZM37.2909 308.394C57.0123 290.973 69.0912 265.945 68.8183 243.053C68.7217 234.945 67.0952 227.304 64.0133 220.292C52.778 231.917 43.6199 245.183 37.5642 259.1C31.4277 273.203 26.4079 293.194 37.2909 308.394Z" fill="#FA6D01"/>
<path d="M69.4952 116.511C77.0668 113.293 85.444 110.886 94.4172 109.353C111.485 106.438 130.737 106.776 148.625 110.308C178.889 116.283 215.859 134.408 220.454 165.823C221.513 173.068 220.598 180.097 217.735 186.715C215.143 192.706 210.965 198.355 205.317 203.505C200.192 208.179 193.972 212.351 186.828 215.905C180.321 219.142 173.08 221.815 165.886 223.631C146.472 228.535 124.539 229.16 104.129 225.392C82.2086 221.345 63.1929 212.588 49.139 200.069C43.4008 194.918 38.9207 189.115 35.822 182.82C32.738 176.556 31.1557 170.078 31.121 163.57C31.0561 151.521 36.2901 140.324 46.2591 131.189C52.4695 125.497 59.9147 120.72 68.3896 116.99C68.7546 116.828 69.1265 116.668 69.4952 116.511ZM181.64 218.194C205.158 208.197 223.814 189.878 220.3 165.841C215.718 134.501 178.807 116.413 148.592 110.447C116.981 104.205 73.526 106.402 46.369 131.289C36.4309 140.396 31.2112 151.559 31.2771 163.567C31.349 176.699 37.7297 189.624 49.2463 199.963C76.9612 224.651 123.82 234.107 165.846 223.491C171.22 222.133 176.545 220.358 181.64 218.192L181.64 218.194Z" fill="#FA6D01"/>
<path d="M-45.4272 189.948C-44.2537 189.451 -43.0763 188.971 -41.8883 188.51C-26.0891 182.384 -9.78734 179.964 5.25321 181.514C13.2781 182.34 20.9524 184.292 28.0631 187.311C35.5699 190.499 42.5144 194.912 48.6999 200.423C55.7721 206.762 61.0182 214.263 64.2878 222.717C67.3279 230.576 68.624 239.122 68.1389 248.121C67.678 256.649 65.6462 265.279 62.0986 273.772C58.6275 282.08 53.8898 289.832 48.0161 296.812C42.2904 303.617 35.5545 309.812 27.9987 315.229C20.4462 320.642 12.2314 325.162 3.58542 328.659C-14.592 336.013 -33.7303 338.486 -51.7584 335.811C-60.1546 334.565 -68.1034 332.068 -75.3869 328.388C-82.5504 324.768 -88.8627 320.11 -94.1495 314.546C-99.4933 308.919 -103.627 302.534 -106.433 295.565C-109.343 288.341 -110.753 280.657 -110.624 272.726C-110.483 263.914 -108.545 255.016 -104.866 246.278C-101.368 237.974 -96.3599 229.942 -89.9788 222.41C-78.3632 208.699 -62.6506 197.27 -45.4272 189.948ZM48.5926 200.529C25.2595 179.742 -7.69613 175.409 -41.8293 188.643C-81.6966 204.102 -109.919 238.678 -110.468 272.729C-110.981 304.58 -86.8282 330.463 -51.7351 335.67C-16.1862 340.944 23.8534 325.294 47.8936 296.725C70.4085 269.967 78.3086 227.159 48.5926 200.529Z" fill="#FA6D01"/>
<path d="M62.6884 71.0656C93.0048 58.1775 120.531 53.5541 144.707 57.3164C155.204 58.9491 164.544 62.2943 172.472 67.2613C179.895 71.9114 186.119 78.0016 190.97 85.3633C191.674 86.4322 192.35 87.525 192.993 88.6428C183.263 71.8675 166.731 60.8884 144.68 57.4583C116.235 53.0331 83.1344 60.2341 46.3025 78.8617C15.9369 94.2181 -12.226 115.47 -37.3989 142.024C-85.7631 193.038 -124.817 266.421 -89.3872 319.4C-82.3347 325.334 -73.9811 329.83 -64.5546 332.764C-31.4183 343.071 9.97079 332.539 38.4565 306.552C33.8005 300.06 31.7355 292.04 32.3205 282.715C32.7896 275.215 34.9346 267.029 38.6953 258.384C45.0157 243.856 54.9427 229.745 67.4046 217.576C79.8197 205.453 94.4851 195.51 109.813 188.828C118.889 184.873 129.049 182.461 138.431 182.037C148.708 181.573 157.684 183.46 164.393 187.494C168.873 190.188 172.328 193.82 174.661 198.291C177.195 203.144 178.414 209.013 178.283 215.733L178.09 219.123C187.761 215.436 196.002 210.733 202.587 205.146C213.199 196.141 218.987 184.905 219.324 172.653C219.68 159.726 213.821 146.92 202.826 136.591L202.802 136.568L202.804 136.536C203.63 122.288 201.853 109.536 197.717 98.6155C201.965 109.758 203.765 122.611 202.962 136.513C213.971 146.865 219.837 159.7 219.48 172.656C219.317 178.607 217.843 184.386 215.102 189.831C212.248 195.498 208.074 200.685 202.694 205.251C196.069 210.872 187.774 215.598 178.037 219.297L177.924 219.34L178.132 215.727C178.382 202.737 173.733 193.277 164.313 187.613C149.601 178.766 126.836 181.749 110.527 188.681C110.311 188.772 110.097 188.865 109.884 188.958C78.8183 202.503 51.5965 229.127 38.8449 258.437C32.858 272.197 27.9617 291.709 38.6274 306.523L38.6628 306.572L38.6174 306.615C32.0206 312.64 24.5679 317.963 16.4692 322.436C8.25197 326.974 -0.424076 330.522 -9.31635 332.977C-28.3891 338.244 -47.503 338.218 -64.5965 332.9C-74.0459 329.961 -82.4229 325.452 -89.4918 319.501L-89.5056 319.485C-98.5266 306.001 -103.174 290.603 -103.323 273.72C-103.454 258.811 -100.087 242.608 -93.3182 225.561C-87.447 210.775 -79.0663 195.438 -68.4101 179.977C-59.4065 166.912 -48.7203 153.755 -37.5071 141.929C-25.3498 129.106 -12.2598 117.332 1.40319 106.931C15.7415 96.0162 30.8261 86.5293 46.2369 78.7345C51.8082 75.917 57.2981 73.3597 62.6942 71.064L62.6884 71.0656Z" fill="#FA6D01"/>
<path d="M-0.953665 83.9C4.99215 81.3718 10.8453 79.5113 16.5247 78.3497C25.7991 76.4501 34.7016 76.3931 42.9836 78.185C43.9727 78.3987 44.9392 78.6466 45.8823 78.9268C48.1317 77.7911 50.3881 76.6889 52.6532 75.6197C69.4352 67.6983 85.5619 62.1033 100.583 58.9892C119.007 55.1706 136.069 55.0269 151.295 58.5637C160.111 60.6111 168.007 63.9811 174.763 68.5815C181.122 72.9112 186.543 78.3735 190.877 84.818C198.867 96.7019 203.193 112.046 203.383 129.193L203.384 129.197L202.947 136.704L202.824 136.59C196.124 130.348 187.929 124.946 178.468 120.535C144.969 104.912 102.234 103.716 69.6006 117.493L69.4812 117.543L69.4919 117.422C71.0433 98.6396 61.8578 83.9181 45.8926 79.0857C-8.00506 106.316 -54.2882 151.087 -81.2236 201.737C-80.1317 204.295 -78.7478 206.734 -77.0746 209.052L-77.0385 209.103L-77.0884 209.144C-82.5371 213.758 -87.3985 218.731 -91.6218 224.007C-102.785 252.028 -109.787 288.909 -89.386 319.41L-89.0898 319.853L-89.5045 319.501C-101.962 308.915 -109.125 294.62 -110.215 278.159C-111.212 263.106 -106.983 247.133 -98.3076 233.181C-96.3376 230.014 -94.1563 226.933 -91.7687 223.949C-90.6995 221.269 -89.5501 218.568 -88.3251 215.846C-86.1903 211.109 -83.8761 206.394 -81.3894 201.712C-83.3708 197.014 -84.3894 191.894 -84.4286 186.409C-84.4822 178.936 -82.7254 170.732 -79.2035 162.027C-71.3196 142.533 -56.9668 126.173 -51.1606 120.045C-43.9041 112.385 -28.8018 98.0064 -9.17101 87.7852C-6.4191 86.3517 -3.67889 85.0556 -0.958134 83.8993L-0.953665 83.9ZM45.6911 79.023C44.7977 78.7582 43.8849 78.5245 42.9508 78.3226C9.66857 71.1264 -27.4226 95.2044 -51.0383 120.139C-56.8379 126.261 -71.1768 142.605 -79.0512 162.076C-85.1997 177.275 -85.9435 190.511 -81.2981 201.552C-76.144 191.868 -70.2542 182.332 -63.6946 173.067C-54.0951 159.505 -43.0602 146.509 -30.893 134.439C-18.7706 122.413 -5.53642 111.316 8.44028 101.456C20.3995 93.0204 32.8986 85.4936 45.6911 79.023ZM203.23 129.194C202.815 91.9681 183.872 66.2735 151.258 58.7025C125.921 52.8188 96.091 57.0842 62.4794 71.3701C59.2596 72.7385 56.0119 74.1958 52.7233 75.7476C50.5004 76.7968 48.2844 77.8795 46.0851 78.9871C53.9562 81.378 60.2297 86.099 64.3476 92.7692C68.5619 99.5952 70.3959 108.078 69.6545 117.31C85.9695 110.446 104.879 107.157 124.346 107.798C143.461 108.427 162.201 112.786 178.538 120.406C187.956 124.798 196.12 130.169 202.81 136.375L203.227 129.192L203.23 129.194ZM-77.2397 209.079C-78.8705 206.812 -80.2284 204.414 -81.3058 201.893C-83.759 206.516 -86.0535 211.188 -88.1774 215.9C-89.2829 218.356 -90.3746 220.904 -91.4278 223.529C-87.2872 218.407 -82.541 213.573 -77.2397 209.079ZM-89.8093 319.038C-99.3525 304.551 -103.582 287.391 -102.382 268.025C-101.536 254.405 -98.0354 239.777 -91.9571 224.431C-94.2176 227.286 -96.2895 230.229 -98.1679 233.249C-113.512 257.923 -117.381 295.208 -89.8093 319.038Z" fill="#FA6D01"/>
<path d="M-1.70521 84.8887C-1.19506 84.6715 -0.687597 84.459 -0.175053 84.2491C13.333 78.7039 32.8947 73.482 49.3682 80.0943C56.9161 83.1243 62.5118 88.2999 65.9988 95.4764C69.0515 101.761 70.3136 109.354 69.648 117.432L69.645 117.475L69.6041 117.492C49.6813 125.964 36.1479 139.59 32.474 154.875C28.8111 170.109 35.09 186.393 49.7006 199.578C49.7432 199.598 49.7883 199.618 49.8327 199.643L49.8688 199.662L49.8711 199.701C49.8718 199.722 49.8726 199.744 49.8695 199.767L49.8561 199.918L49.738 199.812C49.6958 199.775 49.6531 199.736 49.611 199.699C49.4252 199.625 49.2655 199.618 49.1329 199.68C48.9179 199.781 48.7741 200.065 48.7241 200.483L48.7064 200.628L48.592 200.527C13.9655 169.677 -43.6061 180.979 -77.0868 209.144L-77.1531 209.201L-77.2034 209.132C-82.1481 202.283 -84.3603 193.819 -83.7769 183.977C-83.3075 176.076 -81.074 167.446 -77.1373 158.326C-63.6002 126.959 -34.7891 98.9525 -1.70521 84.8887ZM69.4944 117.38C70.9351 99.7676 63.389 85.8804 49.3059 80.2266C32.8839 73.6351 13.368 78.8478 -0.112122 84.381C-33.8017 98.2079 -63.2623 126.563 -76.9922 158.379C-83.24 172.856 -88.3299 193.379 -77.1234 208.983C-68.9478 202.119 -59.0753 196.102 -48.5628 191.577C-48.392 191.502 -48.2168 191.428 -48.0455 191.356C-37.2896 186.783 -26.2052 183.826 -15.0938 182.562C-3.11422 181.199 8.29109 181.895 18.8014 184.63C30.1562 187.586 40.1774 192.867 48.5872 200.327C48.6592 199.93 48.8198 199.665 49.0609 199.552C49.1622 199.506 49.2687 199.487 49.3847 199.497C42.7665 193.476 37.6705 186.51 34.632 179.327C31.1635 171.126 30.3846 162.889 32.3194 154.844C34.3048 146.587 38.9545 138.967 46.1438 132.198C52.3259 126.377 60.3994 121.252 69.4944 117.38Z" fill="#FA6D01"/>
<path d="M70.1696 117.001C81.7581 112.075 94.9163 109.027 108.945 108.068C127.183 106.821 146.045 109.074 163.487 114.58C170.684 116.853 177.948 119.942 184.492 123.516C191.78 127.497 198.151 132.018 203.428 136.957C209.297 142.451 213.69 148.364 216.49 154.532C219.595 161.38 220.73 168.555 219.861 175.861C218.987 183.198 216.189 190.047 211.543 196.219C207.359 201.778 201.672 206.803 194.643 211.154C188.325 215.064 181.029 218.375 172.956 220.994C165.716 223.343 157.872 225.097 150.27 226.069C132.063 228.396 113.203 227.33 95.7275 222.986C76.7605 218.272 60.3648 209.808 48.3121 198.508C36.4958 187.344 30.8146 173.575 32.3155 159.74C33.0635 152.843 35.537 146.254 39.6687 140.152C43.9216 133.871 49.7532 128.382 57.0013 123.838C61.1067 121.265 65.5102 118.981 70.1696 117.001ZM181.787 217.529C201.587 209.111 217.415 195.105 219.706 175.844C223.141 146.97 193.92 124.337 163.437 114.715C133.981 105.418 90.5774 102.965 57.0871 123.955C42.7397 132.949 33.9957 145.663 32.4687 159.753C30.9746 173.545 36.6395 187.271 48.4225 198.406C76.4747 224.704 119.417 229.864 150.249 225.923C160.959 224.556 171.872 221.743 181.788 217.526L181.787 217.529Z" fill="#FA6D01"/>
<path d="M47.6945 198.629L47.8 198.634L47.8279 198.667L47.8369 198.694L47.7516 198.699L47.7606 198.7L47.7509 198.703L47.7519 198.712L47.7588 198.72L47.789 198.715L47.76 198.724L47.7656 198.728L47.7899 198.731L47.7682 198.729L47.7869 198.747L47.7732 198.757L47.7674 198.759L47.765 198.752L47.7508 198.734L47.7393 198.732L47.7271 198.759L47.7368 198.73L47.7195 198.729L47.7026 198.742L47.7156 198.73L47.6457 198.762L47.6372 198.718L47.6624 198.659L47.697 198.63L47.6945 198.629ZM47.7415 198.694L47.7357 198.695L47.7402 198.696L47.7415 198.694Z" fill="#FA6D01"/>
<path d="M49.2148 199.439L49.3991 199.386L49.5387 199.378L49.6359 199.395L49.7236 199.435L49.7928 199.496L49.8268 199.548L49.86 199.635L49.8671 199.765L49.7138 199.758L49.6958 199.627L49.6466 199.562L49.5672 199.528L49.453 199.523L49.3076 199.558L49.2777 199.571L49.0928 199.673L48.9124 199.828L48.7738 200.005L48.6925 200.183L48.6733 200.336L48.694 200.411L48.7119 200.439L48.5797 200.515L48.5513 200.468L48.5239 200.379L48.5207 200.248L48.5536 200.11L48.6394 199.933L48.7662 199.765L48.9581 199.588L49.1758 199.456L49.2148 199.439Z" fill="#FA6D01"/>
<path d="M12.5833 150.334C13.7509 149.838 14.9288 149.424 16.1096 149.095C20.7394 147.806 25.1903 148.32 28.0181 150.467C30.3458 152.235 31.3947 154.977 31.0552 158.394L30.9 158.382C31.2345 155.013 30.2045 152.315 27.919 150.579C25.1329 148.461 20.7324 147.958 16.1532 149.233C6.71654 151.859 -2.39525 160.083 -6.00314 169.233C-7.98503 174.257 -7.92474 178.348 -5.82591 181.39L-5.95753 181.467C-8.08431 178.385 -8.14866 174.251 -6.14963 169.182C-4.43943 164.843 -1.32676 160.465 2.6125 156.855C5.69176 154.033 9.08511 151.818 12.5802 150.331L12.5833 150.334Z" fill="#FA6D01"/>
<path d="M86.1851 216.747C87.256 216.292 88.3393 215.907 89.4285 215.597C93.888 214.333 98.1755 214.809 100.899 216.872C103.126 218.56 104.124 221.18 103.787 224.453L103.634 224.44C103.964 221.218 102.984 218.64 100.8 216.983C98.1181 214.95 93.8825 214.483 89.472 215.735C80.4565 218.292 71.7573 226.164 68.3174 234.88C66.4197 239.691 66.4696 243.602 68.4657 246.508L68.3341 246.586C66.31 243.64 66.2567 239.686 68.1715 234.831C71.2104 227.128 78.3428 220.079 86.1825 216.746L86.1851 216.747Z" fill="#FA6D01"/>
<path d="M-1.78033 94.4568C10.4137 89.2743 25.7879 85.4061 39.4869 89.9546C46.3542 92.2346 51.7078 96.72 54.966 102.926C57.8787 108.47 59.1021 115.204 58.5028 122.401L58.3483 122.39C59.3647 110.147 54.9311 95.2342 39.4322 90.0906C25.7816 85.5598 10.4468 89.4187 -1.7174 94.5887C-4.10322 95.6017 -6.36374 96.6657 -8.46811 97.7263C-31.8952 109.538 -51.9918 129.098 -63.6045 151.39C-69.5907 162.881 -77.9254 184.53 -66.4854 200.441L-66.6139 200.521C-78.0968 184.552 -69.7447 162.846 -63.7443 151.328C-52.1168 129.01 -31.9978 109.428 -8.5415 97.6013C-6.4352 96.5401 -4.16944 95.4727 -1.78167 94.4591L-1.78033 94.4568Z" fill="#FA6D01"/>
<path d="M108.963 195.748C109.796 195.395 110.628 195.052 111.464 194.722C119.491 191.544 127.927 189.897 135.861 189.955C144.163 190.017 151.436 191.978 156.89 195.625C165.22 201.195 169.072 210.489 168.025 222.498L167.87 222.487C168.912 210.531 165.083 201.282 156.799 195.742C146.065 188.565 128.293 188.215 111.525 194.854C110.684 195.188 109.84 195.534 109.004 195.888C82.0517 207.345 58.4502 230.064 46.9958 255.743C41.5279 268.001 36.9832 285.392 46.3849 298.621L46.2558 298.699C36.8169 285.416 41.3711 267.977 46.854 255.687C52.6209 242.756 61.6557 230.258 72.9773 219.545C83.6829 209.415 96.0748 201.226 108.963 195.748Z" fill="#FA6D01"/>
<path d="M8.14793 58.2751C11.6079 56.8044 15.0885 55.4402 18.5856 54.1838C31.5427 49.5324 43.904 46.843 55.3234 46.1932C69.283 45.3976 81.5522 47.7023 91.7941 53.046C101.656 58.1928 108.8 66.1048 113.029 76.5628C116.58 85.3465 118.047 95.769 117.387 107.543L117.232 107.536C118.249 89.3407 114.65 65.137 91.7171 53.1726C68.1768 40.8908 38.9847 47.0174 18.6401 54.3221C15.1656 55.5701 11.7078 56.9258 8.28284 58.3805C-42.2399 79.8535 -86.6496 123.393 -106.675 171.859C-115.412 193.002 -122.366 223.206 -105.879 247.032L-106.01 247.111C-113.212 236.702 -116.571 224.18 -115.99 209.89C-115.515 198.198 -112.431 185.387 -106.82 171.808C-96.3629 146.503 -79.1085 122.085 -56.9196 101.198C-37.4524 82.8714 -15.1421 68.1775 8.14854 58.277L8.14793 58.2751Z" fill="#FA6D01"/>
<path d="M107.226 145.695C115.888 142.014 124.324 139.21 132.415 137.332C145.723 134.241 158.243 133.623 169.625 135.496C177.374 136.77 184.261 139.322 190.099 143.077C195.553 146.586 200.122 151.166 203.677 156.686C210.242 166.877 213.256 180.038 212.396 194.746L212.241 194.739C214.129 162.437 198.187 140.343 169.596 135.64C151.219 132.617 130.349 136.02 107.441 145.758C104.199 147.137 100.92 148.64 97.5976 150.271C51.5068 172.905 13.7207 210.749 -6.06783 254.1C-16.1392 276.164 -24.538 307.644 -7.35003 332.311L-7.4791 332.389C-14.973 321.634 -18.2196 308.541 -17.1292 293.47C-16.2444 281.247 -12.5709 267.982 -6.20971 254.044C-1.29241 243.27 4.86015 232.651 12.0757 222.481C19.1536 212.505 27.281 202.924 36.2299 194.006C45.1149 185.151 54.8285 176.929 65.0978 169.573C75.4272 162.175 86.3362 155.638 97.5256 150.144C100.785 148.543 104.02 147.06 107.225 145.698L107.226 145.695Z" fill="#FA6D01"/>
<path d="M41.3746 57.2839C44.3673 56.0122 47.366 54.8098 50.3688 53.6772C66.8258 47.4706 82.4807 43.6797 96.9001 42.4131C114.557 40.8601 130.35 43.1158 143.839 49.1174C157.686 55.2767 167.777 65.4105 173.834 79.2352C176.483 85.2863 178.357 92.0648 179.396 99.3824C180.346 106.062 180.611 113.223 180.183 120.667L180.027 120.66C181.184 100.529 178.013 64.4803 143.771 49.2472C112.962 35.5423 76.0047 44.1641 50.4265 53.8125C47.3615 54.9689 44.3044 56.1939 41.2656 57.4868C11.7249 70.0422 -16.5105 88.9708 -42.8042 113.859C-71.8304 141.334 -93.1784 171.028 -106.253 202.118C-120.962 237.089 -122.704 266.615 -111.433 289.878C-109.786 293.276 -107.7 296.395 -105.682 299.41L-105.815 299.485C-107.836 296.466 -109.925 293.344 -111.575 289.936C-117.741 277.21 -120.008 262.353 -118.31 245.782C-116.927 232.282 -112.919 217.574 -106.398 202.065C-99.6877 186.113 -90.6215 170.268 -79.4516 154.972C-69.0471 140.724 -56.754 126.858 -42.9142 113.759C-29.123 100.705 -14.531 89.108 0.454357 79.2905C13.7727 70.5642 27.5008 63.1864 41.3739 57.2881L41.3746 57.2839Z" fill="#FA6D01"/>
<path d="M79.778 91.0333C94.6812 84.6979 109.051 80.3341 122.574 78.0439C141.267 74.8762 158.243 75.7158 173.035 80.5411C189.066 85.7709 200.903 95.6846 208.212 110.005C214.426 122.178 217.193 137.494 216.212 154.296L216.057 154.289C218.226 117.144 202.526 90.3151 172.983 80.6784C141.469 70.3991 105.783 80.1421 79.7156 91.2229C77.8607 92.0108 76.0608 92.8046 74.3079 93.5989C12.7762 121.519 -39.6814 172.825 -66.0134 230.845C-78.7338 258.874 -89.3154 299.144 -67.4787 331.816L-67.6109 331.891C-77.1138 317.673 -81.2986 300.777 -80.0458 281.672C-79.0158 265.945 -74.3422 248.827 -66.1572 230.79C-59.633 216.415 -51.3917 202.238 -41.6606 188.656C-32.093 175.299 -21.0931 162.524 -8.96616 150.685C3.12851 138.876 16.3168 128.025 30.2324 118.435C44.3158 108.73 59.1215 100.329 74.2417 93.4699C76.094 92.6294 77.9431 91.8175 79.7792 91.0369L79.778 91.0333Z" fill="#FA6D01"/>
<path d="M80.7744 92.7206C81.4786 92.4222 82.1795 92.1267 82.8841 91.836C109.35 80.8798 147.627 70.6212 179.681 83.9655C194.04 89.9429 204.53 99.9699 210.863 113.769C213.651 119.845 215.627 126.668 216.732 134.051C217.747 140.831 218.036 148.117 217.594 155.703L217.439 155.696C218.628 135.331 215.297 98.9487 179.618 84.096C147.616 70.7724 109.384 81.0218 82.9464 91.9661C82.2255 92.2654 81.5014 92.5676 80.7829 92.8741C49.8233 106.033 20.5479 125.887 -6.27455 151.916C-31.98 176.861 -51.5319 203.882 -64.3866 232.23C-75.6529 257.074 -86.089 293.003 -71.8226 323.064C-70.1144 326.664 -67.9392 329.918 -65.8352 333.065L-65.9674 333.141C-68.0726 329.989 -70.251 326.733 -71.9647 323.122C-78.2141 309.953 -80.2686 294.518 -78.0699 277.243C-76.2842 263.215 -71.7283 248.052 -64.5285 232.174C-57.9687 217.707 -49.5154 203.369 -39.4053 189.553C-29.8588 176.51 -18.7497 163.814 -6.38644 151.816C6.74387 139.075 20.7168 127.63 35.1443 117.803C49.8924 107.758 65.2333 99.3237 80.7757 92.7183L80.7744 92.7206Z" fill="#FA6D01"/>
<path d="M40.9616 56.83C55.9336 50.465 70.351 46.0837 83.8982 43.7845C102.641 40.6023 119.666 41.4477 134.498 46.2953C150.531 51.5364 162.375 61.4557 169.701 75.779C175.932 87.9596 178.714 103.283 177.751 120.087L177.596 120.08C179.729 82.9358 164.001 56.0934 134.445 46.4326C102.873 36.1127 67.052 45.9023 40.8843 57.0258C39.039 57.8109 37.2458 58.599 35.5006 59.3909C-25.8221 87.1977 -78.0877 138.321 -104.313 196.145C-117.066 224.268 -127.677 264.658 -105.791 297.371L-105.923 297.447C-115.46 283.191 -119.654 266.252 -118.394 247.1C-117.357 231.355 -112.666 214.193 -104.457 196.087C-97.9694 181.782 -89.7617 167.664 -80.0606 154.127C-70.5243 140.816 -59.5574 128.082 -47.4641 116.276C-35.403 104.5 -22.2566 93.6829 -8.39255 84.1235C5.64326 74.4479 20.3884 66.0822 35.4318 59.2607C37.2822 58.4208 39.128 57.6118 40.9622 56.8318L40.9616 56.83Z" fill="#FA6D01"/>
<path d="M107.231 148.308C107.887 148.029 108.539 147.756 109.195 147.485C122.078 142.174 134.406 138.782 145.841 137.406C159.917 135.713 172.519 137.113 183.3 141.572C194.229 146.094 202.208 153.759 207.015 164.359C211.03 173.217 212.781 184.27 212.079 196.326L211.924 196.319C212.833 180.73 210.314 152.904 183.235 141.703C158.627 131.525 129.424 139.3 109.258 147.615C108.607 147.882 107.952 148.157 107.304 148.433C58.8099 169.045 16.1592 210.274 -4.34051 256.48C-12.2018 274.2 -22.7329 307.597 -4.94704 332.189L-5.07553 332.269C-12.4532 322.068 -15.6971 309.418 -14.7149 294.674C-13.9271 282.824 -10.4836 269.955 -4.48179 256.426C5.72297 233.42 21.6056 211.187 41.4446 192.131C60.8521 173.49 83.5601 158.369 107.232 148.306L107.231 148.308Z" fill="#FA6D01"/>
<path d="M9.45856 58.8978C18.2089 55.1774 26.7408 52.3542 34.9202 50.4723C48.2193 47.4137 60.7318 46.8235 72.108 48.7172C79.8556 50.0072 86.7488 52.5698 92.594 56.3343C98.0598 59.8524 102.64 64.4391 106.211 69.9619C112.806 80.1679 115.858 93.3403 115.035 108.059L114.879 108.052C116.686 75.7517 100.685 53.6235 72.0807 48.8592C51.0896 45.3642 26.874 50.2346 0.10365 63.3379C-45.2649 85.5418 -83.931 124.276 -103.326 166.95C-113.346 188.995 -121.668 220.457 -104.415 245.16L-104.544 245.239C-112.055 234.484 -115.334 221.395 -114.29 206.337C-113.441 194.096 -109.799 180.827 -103.468 166.894C-98.5778 156.133 -92.45 145.53 -85.2592 135.375C-78.2042 125.413 -70.0984 115.85 -61.1679 106.946C-52.3012 98.1066 -42.6061 89.9055 -32.3514 82.5699C-22.0386 75.192 -11.1436 68.6772 0.0329439 63.2082C3.19877 61.658 6.34452 60.2201 9.4599 58.8954L9.45856 58.8978Z" fill="#FA6D01"/>
<path d="M108.946 197.641C109.745 197.301 110.546 196.973 111.348 196.655C119.121 193.576 127.299 191.976 134.995 192.03C143.06 192.087 150.117 193.987 155.405 197.525C163.457 202.912 167.172 211.899 166.148 223.513L165.994 223.502C167.013 211.94 163.32 202.998 155.314 197.641C144.908 190.679 127.674 190.344 111.409 196.787C110.595 197.109 109.78 197.443 108.974 197.787C82.2861 209.13 59.2031 231.708 48.3378 257.255C43.503 268.622 39.5941 284.78 48.4256 297.182L48.2965 297.26C44.4279 291.827 42.6751 285.155 43.0867 277.432C43.4199 271.193 45.1369 264.386 48.194 257.199C53.6523 244.362 62.4026 231.942 73.4988 221.279C83.9971 211.191 96.2066 203.055 108.948 197.638L108.946 197.641Z" fill="#FA6D01"/>
<path d="M-1.98634 96.9524C-1.09977 96.5761 -0.212907 96.2135 0.677561 95.8617C8.70251 92.7023 17.1334 91.072 25.0641 91.1475C33.3538 91.2286 40.6243 93.1998 46.0895 96.8502C54.4581 102.441 58.346 111.751 57.3306 123.773L57.176 123.762C58.1857 111.793 54.3212 102.527 45.9986 96.967C35.2447 89.7813 17.4786 89.3987 0.737976 95.9924C-27.2301 107.006 -51.8967 130.28 -63.6337 156.728C-69.0692 168.974 -73.5649 186.353 -64.1258 199.605L-64.2549 199.683C-73.7331 186.377 -69.2266 168.948 -63.7775 156.672C-58.047 143.759 -49.0449 131.284 -37.7456 120.594C-27.1091 110.531 -14.7963 102.398 -1.98634 96.9524Z" fill="#FA6D01"/>
<path d="M85.2093 217.441C86.1757 217.03 87.1508 216.684 88.1294 216.405C92.1641 215.257 96.1922 215.701 98.6434 217.565C100.654 219.094 101.551 221.467 101.233 224.427L101.079 224.412C101.392 221.501 100.516 219.171 98.5457 217.674C96.1342 215.84 92.1605 215.406 88.1749 216.542C80.009 218.868 72.1474 225.999 69.0572 233.886C67.3483 238.249 67.3917 241.795 69.1915 244.43L69.0599 244.507C67.2347 241.834 67.1853 238.244 68.9113 233.837C70.3783 230.097 73.0655 226.306 76.4808 223.165C79.1785 220.686 82.1516 218.741 85.2073 217.442L85.2093 217.441Z" fill="#FA6D01"/>
<path d="M13.9632 152.265C15.0432 151.806 16.1343 151.418 17.2338 151.107C21.6893 149.85 25.9785 150.332 28.7024 152.396C30.9343 154.087 31.9399 156.711 31.6102 159.985L31.457 159.972C31.7822 156.748 30.7949 154.166 28.6052 152.507C25.9192 150.473 21.6857 149.999 17.2793 151.244C16.1875 151.553 15.1003 151.939 14.0255 152.395C6.23775 155.706 -0.833685 162.701 -3.84183 170.356C-5.73236 175.163 -5.67547 179.076 -3.67228 181.985L-3.80391 182.062C-5.8331 179.114 -5.89539 175.158 -3.98773 170.307C-0.96527 162.619 6.14167 155.589 13.9645 152.263L13.9632 152.265Z" fill="#FA6D01"/>
<path d="M-72.9888 186.576C-67.1526 184.095 -61.0267 182.032 -54.7534 180.458C-46.0612 178.277 -37.0004 176.944 -27.8262 176.495C-18.3781 176.033 -9.04887 176.525 -0.0983972 177.956C19.3804 181.069 36.3046 188.559 48.8425 199.611C51.7642 202.175 54.3976 204.92 56.6713 207.773C61.4474 213.763 64.6969 220.327 66.3279 227.284C67.8687 233.854 67.9474 240.667 66.5649 247.534C63.8943 260.791 55.8834 273.499 44.0107 283.315C30.4329 294.542 12.9437 302.49 -6.5625 306.306C-25.3607 309.981 -44.8996 309.655 -63.0643 305.36C-70.9425 303.497 -78.5376 300.741 -85.6406 297.17C-93.1148 293.408 -99.6848 288.914 -105.167 283.811C-117.563 272.27 -123.56 258.32 -122.511 243.469C-121.954 235.588 -119.556 227.972 -115.38 220.832C-111.552 214.284 -106.241 208.142 -99.5984 202.575C-92.0704 196.269 -82.9573 190.813 -72.9888 186.576ZM18.2462 298.608C27.6877 294.595 36.378 289.434 43.9092 283.208C65.0182 265.755 77.9772 234.734 56.5491 207.859C54.2798 205.013 51.6526 202.274 48.7372 199.716C24.5563 178.399 -16.0497 170.894 -54.7138 180.596C-60.7421 182.109 -66.8216 184.138 -72.7265 186.649C-98.1946 197.473 -120.507 217.272 -122.356 243.476C-124.632 275.724 -93.1967 298.088 -63.0256 305.22C-35.6594 311.689 -6.19188 308.995 18.2462 298.608Z" fill="#FA6D01"/>
<path d="M-72.6471 186.954C-71.2991 186.38 -69.9336 185.833 -68.556 185.31C-60.1872 182.143 -51.2865 179.816 -42.0983 178.393C-32.8249 176.957 -23.4468 176.47 -14.2239 176.949C5.33807 177.965 23.3934 183.293 37.9901 192.361C41.4556 194.515 44.6817 196.869 47.5814 199.361C53.4124 204.368 58.0107 210.118 61.2524 216.447C64.388 222.572 66.1793 229.09 66.5767 235.82C66.9715 242.503 65.98 249.191 63.6306 255.694C61.233 262.333 57.4837 268.588 52.4909 274.286C41.3658 286.979 25.4673 296.734 6.5103 302.497C-2.29163 305.173 -11.5757 306.941 -21.0843 307.752C-30.405 308.546 -39.7196 308.405 -48.7681 307.332C-81.3849 303.463 -116.48 285.354 -121.357 253.617C-122.525 246.013 -121.825 238.43 -119.274 231.08C-116.935 224.337 -113.052 217.811 -107.738 211.68C-98.9785 201.577 -86.6325 192.898 -72.6432 186.953L-72.6471 186.954ZM18.1682 298.151C31.7421 292.382 43.5419 284.266 52.3672 274.195C72.8 250.881 70.7413 219.454 47.4742 199.467C44.5827 196.981 41.3622 194.63 37.9024 192.481C9.1539 174.622 -32.6095 171.861 -68.4995 185.442C-69.8628 185.957 -71.2218 186.504 -72.5737 187.079C-100.705 199.035 -125.822 223.569 -121.209 253.596C-116.343 285.259 -81.313 303.328 -48.7537 307.19C-25.1834 309.986 -1.6254 306.564 18.1682 298.151Z" fill="#FA6D01"/>
<path d="M-91.7445 173.792C-90.7275 173.36 -89.6936 172.948 -88.6403 172.555C-75.4762 167.657 -59.8742 165.568 -42.2693 166.342C-25.2309 167.093 -8.33036 170.468 7.96386 176.374C24.4924 182.365 38.3818 190.301 49.2476 199.961C51.9266 202.363 54.3443 204.811 56.4305 207.24C61.4456 213.073 65.0576 219.442 66.8761 225.659C68.9923 232.893 68.7225 239.802 66.072 246.198C63.5667 252.244 59.0818 257.583 52.7396 262.066C47.3647 265.865 40.7977 268.973 33.2187 271.307C19.2749 275.598 3.17387 277.029 -14.6376 275.556C-31.9831 274.124 -48.799 270.121 -64.6191 263.659C-80.9779 256.976 -94.2311 248.524 -104.008 238.535C-109.361 233.067 -113.375 227.348 -115.942 221.533C-118.953 214.716 -119.828 208.012 -118.544 201.611C-117.201 194.919 -113.552 188.866 -107.704 183.626C-103.433 179.798 -97.9634 176.432 -91.747 173.791L-91.7445 173.792ZM49.1403 200.066C38.2915 190.42 24.418 182.493 7.90855 176.508C-8.36909 170.607 -25.2537 167.236 -42.2747 166.486C-59.8565 165.711 -75.4379 167.798 -88.5812 172.688C-98.2651 176.291 -115.016 184.843 -118.388 201.639C-121.574 217.514 -110.673 231.51 -103.891 238.44C-94.1295 248.414 -80.8947 256.856 -64.5537 263.53C-48.7488 269.984 -31.9488 273.984 -14.6207 275.415C3.16839 276.884 19.2494 275.457 33.1719 271.172C42.7545 268.223 59.7553 261.05 65.928 246.148C70.8374 234.301 67.3314 220.152 56.3101 207.332C54.2277 204.908 51.815 202.462 49.1403 200.066Z" fill="#FA6D01"/>
<path d="M-91.2426 174.116C-81.3559 169.914 -69.4927 167.452 -55.8581 166.785C-39.6911 165.994 -22.9546 167.877 -6.11435 172.382C10.8963 176.933 25.8801 183.583 38.4193 192.151C41.5094 194.263 44.4607 196.512 47.1929 198.839C53.0063 203.832 57.6702 209.049 61.0533 214.346C65.0862 220.658 67.2739 227.064 67.5599 233.388C67.8796 240.511 65.6412 247.207 60.9062 253.291C56.7163 258.674 50.6791 263.345 43.4479 266.802C31.3621 272.579 16.4185 275.562 -0.965731 275.67C-17.4468 275.771 -34.1857 273.248 -50.7185 268.172C-67.6472 262.972 -82.2139 255.734 -94.0143 246.659C-107.067 236.622 -114.974 225.896 -117.522 214.779C-119.206 207.425 -118.148 200.01 -114.463 193.338C-111.015 187.096 -105.395 181.637 -98.2093 177.55C-96.0104 176.3 -93.6881 175.154 -91.2446 174.116L-91.2426 174.116ZM47.0901 198.945C44.3635 196.623 41.4155 194.376 38.3304 192.267C25.8056 183.711 10.8385 177.065 -6.15367 172.519C-22.9799 168.019 -39.6985 166.138 -55.8468 166.928C-72.8254 167.758 -87.0489 171.373 -98.1243 177.671C-113.261 186.279 -120.634 200.486 -117.366 214.748C-114.827 225.832 -106.936 236.531 -93.9114 246.546C-82.1254 255.61 -67.5745 262.839 -50.665 268.032C-34.1481 273.105 -17.4252 275.625 -0.960914 275.524C16.4002 275.417 31.3218 272.438 43.3836 266.672C59.0294 259.195 68.0128 246.753 67.4107 233.393C66.7519 218.776 55.9996 206.592 47.094 198.944L47.0901 198.945Z" fill="#FA6D01"/>
<path d="M-92.3974 149.056C-86.8163 146.683 -78.6834 145.973 -68.1301 146.944C-56.0688 148.054 -44.5361 151.09 -41.2887 151.993C-6.84753 161.577 25.3041 178.613 49.2452 199.963C52.133 202.547 54.6378 204.982 56.9014 207.407C63.8811 214.881 71.7331 224.699 70.5091 234.366C69.111 245.408 55.7634 247.739 47.9328 248.144C33.6425 248.884 17.5664 246.232 0.149741 240.261C-13.4342 235.604 -27.765 229.019 -43.6628 220.129C-60.2938 210.829 -73.4967 201.319 -84.024 191.054C-92.0298 183.248 -100.332 173.906 -101.215 163.8C-101.695 158.311 -99.9908 154.064 -96.1488 151.178C-95.064 150.362 -93.8135 149.655 -92.398 149.054L-92.3974 149.056ZM49.1393 200.066C25.2164 178.732 -6.91493 161.707 -41.3325 152.129C-44.576 151.226 -56.0985 148.194 -68.1444 147.086C-81.3305 145.873 -90.7196 147.287 -96.0514 151.292C-99.8508 154.146 -101.536 158.35 -101.061 163.791C-100.181 173.853 -91.8988 183.17 -83.9118 190.957C-73.3939 201.213 -60.2023 210.714 -43.5821 220.007C-7.52556 240.167 22.4067 249.325 47.926 248.001C55.7084 247.599 68.9713 245.288 70.3573 234.35C71.5742 224.739 63.7438 214.954 56.7866 207.503C54.5262 205.081 52.0246 202.649 49.1405 200.07L49.1393 200.066Z" fill="#FA6D01"/>
<path d="M-91.6856 150.408C-87.9628 148.827 -83.126 147.847 -77.3362 147.53C-70.1944 147.137 -61.4624 147.782 -53.98 149.253C-22.2743 155.484 10.4312 170.399 38.1112 191.253C41.3481 193.691 44.4316 196.179 47.2748 198.648C49.4152 200.51 56.8584 207.256 62.798 215.821C68.5632 224.136 70.7668 231.051 69.348 236.375C68.0514 241.243 63.671 244.664 56.3273 246.541C49.8225 248.206 42.4747 248.721 34.4879 248.074C27.4947 247.507 19.8043 246.031 11.6282 243.688C-3.85837 239.247 -18.8297 232.378 -30.1434 226.891C-40.5556 221.841 -55.9615 213.984 -69.4811 204.102C-76.2532 199.153 -82.0417 194.063 -86.6894 188.971C-91.9583 183.199 -95.9316 177.239 -98.499 171.257C-101.573 164.094 -101.282 158.425 -97.6344 154.405C-96.1876 152.811 -94.1883 151.473 -91.6856 150.408ZM47.1694 198.753C44.3295 196.288 41.2485 193.801 38.0147 191.365C10.3523 170.527 -22.329 155.62 -54.0117 149.394C-65.421 147.151 -89.1982 145.332 -97.5146 154.497C-101.124 158.475 -101.405 164.095 -98.3532 171.203C-87.447 196.606 -54.1589 215.079 -30.069 226.763C-3.84358 239.483 29.672 253.21 56.2896 246.402C63.5764 244.539 67.9193 241.153 69.2004 236.341C70.6074 231.057 68.4099 224.18 62.6689 215.899C56.7406 207.349 49.3073 200.614 47.1694 198.753Z" fill="#FA6D01"/>
<path d="M-70.971 117.287C-69.6412 116.723 -66.8108 117.419 -62.3642 119.404C-51.7681 124.132 -41.9325 130.703 -32.4204 137.054L-31.0654 137.96C-2.54781 156.992 24.4315 177.815 49.1127 199.845C51.8523 202.29 54.331 204.557 56.6895 206.775C57.6597 207.687 58.9407 208.786 60.4262 210.059C66.3775 215.16 74.5259 222.147 75.2216 227.683C75.4046 229.136 75.1052 230.115 74.3317 230.595C72.2564 231.884 67.1837 229.262 64.1555 227.695C63.7166 227.468 63.3036 227.255 62.9552 227.082C36.4445 213.919 12.5704 195.246 -10.5189 177.189L-11.4461 176.464C-26.4588 164.724 -38.5602 154.583 -49.5287 144.55C-50.8538 143.338 -52.2504 142.109 -53.7288 140.806C-60.0007 135.284 -67.1127 129.023 -70.7332 122.13C-71.9645 119.786 -72.1864 118.293 -71.4095 117.567C-71.2879 117.453 -71.1443 117.361 -70.9743 117.29L-70.971 117.287ZM73.9982 230.602C74.0858 230.565 74.169 230.522 74.2466 230.474C74.9673 230.027 75.2438 229.093 75.069 227.697C74.3804 222.215 65.9205 214.962 60.3228 210.163C58.8373 208.89 57.5532 207.789 56.5824 206.875C54.2239 204.657 51.7458 202.392 49.0081 199.946C24.33 177.919 -2.64046 157.103 -31.1549 138.075L-32.5099 137.169C-42.017 130.82 -51.8488 124.254 -62.4303 119.532C-67.3776 117.325 -70.2775 116.714 -71.2962 117.665C-72.01 118.331 -71.7731 119.812 -70.5921 122.062C-66.9833 128.933 -59.8832 135.183 -53.6207 140.696C-52.1424 141.999 -50.7457 143.228 -49.4181 144.442C-38.4522 154.473 -26.3539 164.611 -11.3444 176.348L-10.4172 177.073C12.6665 195.126 36.5343 213.793 63.0303 226.95C63.3794 227.124 63.7949 227.339 64.2332 227.564C67.113 229.055 71.8577 231.509 73.9989 230.598L73.9982 230.602Z" fill="#FA6D01"/>
<path d="M-70.4761 117.95C-69.7719 117.652 -68.7021 117.584 -67.2421 117.744C-60.1052 118.526 -51.7876 124.238 -45.1005 128.828C-43.3026 130.063 -41.6038 131.23 -40.0832 132.193C-14.095 148.664 11.7746 167.951 39.0029 191.155C42.0591 193.76 44.8545 196.186 47.5485 198.577C48.2571 199.206 48.9701 199.837 49.6857 200.468C57.5012 207.381 65.5835 214.527 71.7185 222.715C73.5138 225.112 75.4156 228.253 74.2697 229.601C73.4735 230.537 71.3479 230.389 67.953 229.158C58.9986 225.911 50.7083 220.454 42.6923 215.177C41.5063 214.396 40.2818 213.589 39.0918 212.815C26.8468 204.851 13.8062 195.612 -0.77453 184.571C-2.24274 183.459 -3.72051 182.343 -5.20201 181.223C-27.0749 164.697 -49.6939 147.608 -66.6752 127.14L-67.0565 126.683C-69.2863 124.007 -72.3393 120.345 -71.2755 118.602C-71.1049 118.322 -70.8376 118.103 -70.4722 117.949L-70.4761 117.95ZM47.4401 198.679C44.7466 196.29 41.9532 193.863 38.8975 191.26C11.6755 168.062 -14.1883 148.779 -40.1715 132.311C-41.6953 131.345 -43.394 130.178 -45.1945 128.942C-51.8651 124.363 -60.1663 118.662 -67.261 117.885C-69.3782 117.654 -70.6841 117.919 -71.1437 118.672C-72.156 120.333 -69.015 124.101 -66.9368 126.595L-66.5555 127.052C-49.5848 147.508 -26.974 164.591 -5.10742 181.111C-3.62592 182.231 -2.14816 183.347 -0.679946 184.459C13.8982 195.499 26.9357 204.735 39.1782 212.698C40.3682 213.471 41.5952 214.28 42.7806 215.059C50.789 220.332 59.0711 225.784 68.0083 229.023C71.2847 230.211 73.4086 230.38 74.146 229.51C74.9938 228.512 74.0851 226.128 71.5881 222.795C65.4631 214.619 57.3865 207.477 49.5753 200.571C48.8591 199.937 48.1461 199.307 47.4375 198.678L47.4401 198.679Z" fill="#FA6D01"/>
<path d="M-35.7299 84.5638C-35.445 84.4427 -35.1313 84.3508 -34.7893 84.2864C-26.9823 82.825 -14.2503 94.6345 -7.41198 100.979C-6.18965 102.112 -5.13568 103.091 -4.31734 103.801C4.75015 111.687 14.156 120.79 24.4362 131.629C35.2988 143.082 44.4377 153.39 52.3773 163.146C61.9765 174.942 69.9436 186.047 76.736 197.096C76.948 197.44 77.2463 197.903 77.6244 198.491C80.6299 203.156 87.6689 214.077 86.1717 219.531C85.8694 220.629 85.2276 221.454 84.2621 221.984C78.137 225.335 64.3778 213.293 58.5 208.151C57.7063 207.457 57.0805 206.91 56.619 206.525C54.0504 204.391 51.4279 202.12 48.605 199.584C29.5064 182.447 10.6604 162.219 -7.40846 139.463C-8.42427 138.183 -17.5625 126.611 -25.5757 114.363C-35.1389 99.7453 -39.1458 90.3129 -37.4872 86.324C-37.146 85.5022 -36.5549 84.9146 -35.7299 84.5638ZM83.8098 222.042C83.9383 221.988 84.0631 221.928 84.1835 221.862C85.1112 221.354 85.7311 220.559 86.0223 219.497C87.5045 214.1 80.4878 203.214 77.4916 198.564C77.1135 197.976 76.8126 197.512 76.602 197.166C60.4396 170.872 39.0229 147.224 24.3209 131.723C14.0438 120.887 4.6411 111.788 -4.42326 103.905C-5.2422 103.192 -6.2987 102.213 -7.52104 101.079C-14.3405 94.7531 -27.033 82.9795 -34.758 84.4254C-36.0324 84.6643 -36.9007 85.3194 -37.3401 86.3765C-41.4255 96.2 -8.67771 137.619 -7.28176 139.377C10.7808 162.128 29.6225 182.349 48.7148 199.48C51.5352 202.014 54.1551 204.284 56.7232 206.416C57.1872 206.802 57.8135 207.351 58.6072 208.045C64.341 213.06 77.6135 224.674 83.8111 222.04L83.8098 222.042Z" fill="#FA6D01"/>
<path d="M-35.5282 85.4311C-34.21 84.8699 -32.2278 85.0793 -29.6123 86.0562C-18.8176 90.0894 -9.28099 99.0482 -0.865914 106.953C0.437098 108.176 1.66722 109.333 2.89537 110.465C12.2198 119.06 21.6133 128.567 31.6137 139.529C51.4204 161.242 70.1642 182.71 81.8325 206.575L81.9512 206.817C83.6216 210.227 87.0951 217.325 84.7729 220.211C83.9078 221.286 82.3155 221.681 80.0368 221.385C70.4446 220.14 59.9584 210.165 52.2996 202.88C50.7616 201.417 49.3102 200.035 48.0154 198.869C45.8445 196.915 43.5938 194.835 41.3253 192.689C21.8197 174.225 3.60954 153.921 -12.8 132.34L-13.2643 131.73C-21.8145 120.488 -30.6535 108.863 -35.771 96.0554C-36.9351 93.1397 -38.5571 87.9501 -36.3287 85.9386C-36.0968 85.7281 -35.8294 85.5608 -35.5282 85.4311ZM83.4999 220.973C83.9711 220.773 84.3531 220.49 84.6465 220.125C86.9151 217.307 83.4653 210.262 81.8091 206.876L81.6904 206.634C70.0314 182.784 51.2937 161.328 31.4952 139.621C21.498 128.661 12.1076 119.157 2.7863 110.565C1.55814 109.433 0.328023 108.276 -0.975586 107.052C-9.38065 99.1576 -18.9053 90.2092 -29.6707 86.1874C-32.8228 85.0091 -35.026 84.9597 -36.2213 86.038C-38.3853 87.9937 -36.7779 93.1203 -35.6271 96.0024C-30.5175 108.792 -21.6829 120.411 -13.1395 131.645L-12.6746 132.257C3.73056 153.831 21.9351 174.131 41.4364 192.589C43.7028 194.735 45.9536 196.814 48.1239 198.767C49.4193 199.935 50.8732 201.318 52.4112 202.781C60.0537 210.049 70.5185 220.004 80.0576 221.243C81.4899 221.428 82.6412 221.337 83.4999 220.973Z" fill="#FA6D01"/>
<path d="M4.81302 58.9603C5.26929 58.7664 5.74005 58.5842 6.22276 58.4124C17.4299 54.4557 30.3897 58.6537 44.7434 70.8923C53.6711 78.5046 63.0653 89.1969 72.6614 102.672C90.1346 127.206 101.212 152.753 104.701 176.55C105.911 184.803 106.1 191.597 105.277 197.321C104.084 205.628 100.727 211.62 95.2996 215.132C83.7884 222.581 68.5279 214.848 57.751 207.049C54.9504 205.023 52.1343 202.738 49.1387 200.067C29.691 182.627 13.5001 158.877 2.31905 131.386C-5.19738 112.906 -19.7406 69.3963 4.81302 58.9603ZM92.4177 216.5C93.3711 216.095 94.3022 215.603 95.2119 215.015C104.415 209.062 107.467 196.487 104.549 176.57C101.065 152.795 89.9937 127.268 72.5348 102.752C54.9852 78.1103 29.2461 50.4389 6.28049 58.5477C-20.0968 67.857 -5.17404 112.554 2.46606 131.336C13.638 158.806 29.8191 182.539 49.2491 199.964C52.2396 202.633 55.0539 204.912 57.8494 206.936C67.7294 214.088 81.3918 221.188 92.4177 216.5Z" fill="#FA6D01"/>
<path d="M4.59437 59.5299C7.67273 58.2218 11.3258 57.7354 15.5291 58.0798C27.7126 59.0774 40.2814 65.9877 52.8817 78.6162C61.4353 87.1879 69.9447 98.2877 78.8961 112.548C97.3839 141.997 106.215 168.428 105.143 191.109C104.792 198.553 102.247 216.01 86.2492 217.36C79.7253 217.911 72.594 215.975 65.0537 211.605C58.1062 207.581 51.8135 202.066 47.6848 198.268C45.3725 196.131 43.0687 193.853 40.8375 191.5C31.4385 181.586 23.0251 170.398 15.8336 158.249C8.80615 146.378 3.07328 133.81 -1.20852 120.895C-2.31128 117.569 -5.99338 105.692 -7.0959 92.5215C-8.21439 79.1621 -6.26793 69.5017 -1.31204 63.8145C0.326694 61.9343 2.29942 60.503 4.58987 59.5292L4.59437 59.5299ZM92.0826 215.811C102.772 211.267 104.689 197.484 104.992 191.101C106.061 168.449 97.2376 142.043 78.7646 112.619C69.8187 98.3691 61.3168 87.2791 52.7695 78.7135C40.1949 66.1111 27.661 59.2164 15.5166 58.2215C8.23769 57.6258 2.61841 59.5377 -1.18641 63.9047C-6.11784 69.5632 -8.05252 79.1888 -6.93571 92.5111C-5.83348 105.668 -2.15618 117.531 -1.05462 120.853C7.6912 147.244 22.2202 171.64 40.9587 191.404C43.1868 193.754 45.4899 196.03 47.7991 198.164C58.1342 207.671 71.845 218.429 86.2387 217.213C88.4302 217.029 90.3711 216.538 92.0826 215.811Z" fill="#FA6D01"/>
<path d="M44.7996 44.7929C48.4997 43.2198 52.4549 42.1971 56.6296 41.7389C64.3323 40.8913 72.0069 41.9871 79.4358 44.9979C86.0417 47.6744 92.4987 51.8732 98.6272 57.4821C112.336 70.0239 120.586 85.8202 124.282 94.1186C131.392 110.078 135.441 127.224 135.989 143.702C136.287 152.639 135.532 161.228 133.742 169.23C131.821 177.823 128.696 185.772 124.457 192.856C117.561 204.378 107.053 212.145 94.8705 214.728C82.6981 217.308 69.6179 214.545 58.0396 206.951C55.0669 205.001 52.0704 202.685 49.1378 200.069C36.677 188.91 26.6733 173.894 20.2106 156.64C14.1622 140.493 11.3427 122.947 12.0567 105.899C12.6671 91.3079 16.5581 76.6514 22.732 65.687C26.4721 59.046 31.0382 53.6698 36.3054 49.7064C38.9579 47.7114 41.7958 46.0697 44.7996 44.7929ZM102.678 212.116C111.464 208.382 118.981 201.716 124.326 192.787C142.818 161.891 136.355 121.588 124.141 94.1747C120.448 85.8853 112.209 70.1095 98.5193 57.586C85.37 45.5567 71.2824 40.2731 56.6479 41.8835C42.2613 43.4664 30.8971 51.4986 22.8697 65.7561C16.7066 76.7016 12.8225 91.3344 12.2119 105.905C10.6954 142.11 24.8899 178.153 49.2462 199.967C52.1752 202.578 55.164 204.89 58.131 206.836C69.674 214.407 82.7107 217.16 94.8398 214.591C97.5419 214.018 100.163 213.188 102.679 212.12L102.678 212.116Z" fill="#FA6D01"/>
<path d="M45.8855 45.2157C45.9543 45.1861 46.0231 45.1565 46.0925 45.1287C52.5 42.4485 59.5018 41.5828 66.9078 42.5543C74.7735 43.5855 82.3564 46.3885 89.4459 50.8855C95.7953 54.9139 101.802 60.3288 107.297 66.9793C119.708 82.0017 126.307 99.2813 129.139 108.246C134.204 124.292 136.353 141.471 135.187 156.616C134.516 165.33 132.775 173.433 130.011 180.696C126.977 188.665 122.685 195.683 117.255 201.556C113.221 205.917 108.627 209.278 103.597 211.543C98.8778 213.671 93.7764 214.838 88.4337 215.018C81.4307 215.252 74.2292 213.822 67.0345 210.768C60.2035 207.868 53.587 203.521 47.8948 198.196C45.0764 195.553 42.3463 192.638 39.7815 189.529C29.0159 176.494 20.938 160.468 16.4221 143.19C11.9448 126.066 11.127 108.378 14.0577 92.04C16.4941 78.4552 22.4579 65.5406 30.4166 56.6099C35.0054 51.4618 40.211 47.6266 45.8907 45.2122L45.8855 45.2157ZM102.729 211.745C108.051 209.482 112.909 206.028 117.132 201.463C139.815 176.938 138.128 137.25 128.984 108.286C119.838 79.315 98.723 46.8702 66.8831 42.6975C52.9008 40.8659 40.3303 45.7084 30.5292 56.7058C22.5871 65.6161 16.6361 78.5052 14.2028 92.0674C8.17956 125.645 18.0249 162.958 39.8959 189.445C42.4564 192.547 45.1828 195.457 47.998 198.097C59.8911 209.224 74.6251 215.34 88.4211 214.877C93.4487 214.709 98.2521 213.649 102.727 211.747L102.729 211.745Z" fill="#FA6D01"/>
<path d="M76.2384 44.8921C82.6911 42.1497 89.4443 40.4397 96.3802 39.798C112.597 38.2986 128.001 43.2147 140.925 54.0163C152.411 63.6162 161.203 77.2568 165.684 92.4267C170.637 109.197 171.096 127.404 167.014 145.076C162.85 163.107 154.19 179.408 141.969 192.212C131.182 203.516 117.189 211.4 102.569 214.411C86.6578 217.687 71.2528 215.04 58.0142 206.753C54.8129 204.748 51.7372 202.418 48.8759 199.824C36.4928 188.643 28.0395 173.234 24.4326 155.263C21.1819 139.074 22.017 121.142 26.7815 104.771C31.4507 88.7337 40.1788 73.6106 51.3642 62.1869C57.5066 55.9132 64.293 50.8359 71.5336 47.1002C73.0811 46.3018 74.6509 45.564 76.2378 44.8903L76.2384 44.8921ZM115.777 210.145C125.85 205.864 134.853 199.457 141.855 192.118C166.493 166.301 175.788 127.186 165.537 92.4648C157.381 64.8418 132.266 36.6246 96.3979 39.9409C89.3158 40.5969 82.663 42.353 76.4803 44.9807C51.3121 55.6776 33.9188 80.8098 26.9322 104.809C18.9578 132.206 19.9488 173.502 48.9863 199.722C51.8413 202.309 54.9089 204.634 58.1045 206.634C77.2407 218.613 98.1454 217.639 115.778 210.142L115.777 210.145Z" fill="#FA6D01"/>
<path d="M76.9714 45.347C86.437 41.3231 96.875 39.4077 108.009 40.5147C124.189 42.1249 138.556 50.0214 149.558 63.3507C159.129 74.949 165.692 90.071 168.032 105.931C169.283 114.407 169.462 123.147 168.567 131.908C167.662 140.75 165.681 149.418 162.677 157.669C156.293 175.21 145.577 190.056 131.689 200.603C119.307 210.006 104.278 215.079 89.3693 214.892C81.8443 214.797 74.5544 213.388 67.6969 210.702C60.5507 207.902 54.0361 203.773 48.3341 198.425C45.5539 195.826 42.9238 192.918 40.5146 189.779C30.3433 176.524 24.3498 159.915 23.184 141.75C22.6378 133.241 23.1569 124.562 24.7251 115.957C26.2737 107.466 28.8079 99.229 32.2597 91.4771C40.7369 72.4387 56.5931 54.0088 76.9714 45.347ZM116.526 209.252C121.764 207.025 126.83 204.108 131.589 200.493C159.034 179.652 173.277 142.542 167.877 105.952C163.454 75.9787 143.222 44.1647 107.991 40.658C96.8894 39.5535 86.4759 41.4658 77.0344 45.4789C56.693 54.1242 40.8672 72.5237 32.4015 91.5331C17.4352 125.142 20.6684 163.675 40.638 189.696C43.041 192.829 45.6667 195.731 48.4407 198.323C66.6412 215.386 93.2798 219.134 116.526 209.252Z" fill="#FA6D01"/>
<path d="M91.9409 59.5912C94.9206 58.3252 97.9457 57.202 101.007 56.2263C109.762 53.4357 118.639 51.9184 127.389 51.7157C144.638 51.3153 160.963 56.2655 173.361 65.6572C185.981 75.2162 194.57 89.3177 197.546 105.365C199.033 113.386 199.17 121.787 197.951 130.331C196.79 138.473 194.426 146.594 190.923 154.467C187.178 162.886 182.204 170.885 176.14 178.239C170.095 185.572 163.082 192.125 155.299 197.715C147.935 203.003 139.999 207.328 131.719 210.569C123.054 213.959 114.159 216.099 105.28 216.929C87.9531 218.547 71.1433 214.901 57.9466 206.664C54.568 204.554 51.3853 202.132 48.4892 199.466C37.0136 188.918 29.78 174.122 28.1169 157.806C27.2796 149.592 27.7934 141.108 29.6401 132.586C31.4088 124.425 34.3656 116.373 38.4313 108.652C42.7691 100.414 48.2802 92.6872 54.8148 85.6876C61.379 78.6557 68.841 72.503 76.9949 67.3969C81.8014 64.3883 86.8057 61.7767 91.9454 59.5919L91.9409 59.5912ZM134.448 209.311C141.653 206.249 148.622 202.327 155.204 197.6C170.933 186.305 183.235 171.371 190.779 154.411C198.029 138.11 200.316 121.157 197.392 105.389C194.421 89.376 185.852 75.3066 173.262 65.7684C160.893 56.4 144.603 51.4594 127.392 51.8589C110.2 52.2587 92.8015 57.6717 77.0788 67.5149C60.6613 77.794 47.3447 92.0399 38.5685 108.714C30.1844 124.642 26.6223 141.613 28.2708 157.789C29.9295 174.074 37.1485 188.838 48.5971 199.362C51.4869 202.022 54.6614 204.439 58.0318 206.543C71.1988 214.761 87.9721 218.399 105.263 216.783C115.167 215.857 125.013 213.323 134.448 209.311Z" fill="#FA6D01"/>
<path d="M92.0953 60.1782C99.0802 57.2083 106.282 55.0503 113.546 53.7523C122.338 52.1802 131.023 51.9094 139.361 52.9474C156.1 55.0308 171.087 62.5544 181.559 74.1296C186.824 79.9501 190.925 86.7398 193.744 94.3127C196.42 101.499 197.878 109.181 198.075 117.149C198.28 125.476 197.139 133.977 194.68 142.415C192.316 150.532 188.78 158.452 184.168 165.961C179.289 173.902 173.318 181.24 166.416 187.769C159.427 194.384 151.618 200.038 143.21 204.577C135.449 208.768 127.287 211.929 118.954 213.977C110.177 216.133 101.397 216.999 92.856 216.552C75.884 215.662 60.2582 209.369 48.86 198.837C46.0068 196.204 43.3891 193.288 41.0795 190.168C36.4337 183.891 32.9996 176.733 30.8756 168.894C28.8683 161.489 28.076 153.673 28.5146 145.659C29.432 128.935 35.5333 112.193 46.1552 97.2437C51.532 89.6761 57.9053 82.7858 65.0929 76.7669C72.4353 70.6189 80.5012 65.4907 89.0654 61.5237C90.0711 61.0581 91.0802 60.6091 92.0953 60.1782ZM134.202 208.756C137.213 207.476 140.194 206.041 143.134 204.455C159.981 195.361 174.124 182.025 184.034 165.89C193.523 150.443 198.325 133.588 197.919 117.154C197.515 100.769 191.661 85.5225 181.439 74.2232C170.991 62.6764 156.04 55.1703 139.34 53.0913C122.991 51.056 105.63 54.0159 89.1361 61.6534C72.0675 69.5563 57.2513 81.892 46.2862 97.3245C35.6789 112.254 29.5885 128.971 28.6711 145.67C27.7662 162.17 32.2179 177.944 41.2086 190.089C43.5132 193.201 46.1253 196.112 48.9716 198.738C60.3428 209.246 75.9317 215.524 92.8665 216.411C106.579 217.13 120.702 214.497 134.205 208.758L134.202 208.756Z" fill="#FA6D01"/>
<path d="M87.9704 85.8847C88.2463 85.7682 88.5182 85.6528 88.7946 85.5381C97.5483 81.8917 106.771 79.2295 116.205 77.6254C125.722 76.0076 135.282 75.4979 144.622 76.1108C161.843 77.2393 178.377 82.7234 191.179 91.5498C205.448 101.39 214.149 114.692 216.339 130.017C218.568 145.613 214.106 161.589 203.436 176.221C193.985 189.18 180.016 200.543 164.106 208.216C156.068 212.092 147.451 215.138 138.494 217.271C129.34 219.449 120.077 220.614 110.959 220.729C91.2427 220.98 73.1428 216.292 58.6175 207.17C55.2607 205.062 52.072 202.673 49.1384 200.067C43.1206 194.663 38.4628 188.402 35.2951 181.458C32.2909 174.871 30.6679 167.772 30.4689 160.36C30.0861 145.99 35.1516 131.134 44.7325 118.526C55.2184 104.728 70.1571 93.4525 87.9673 85.8817L87.9704 85.8847ZM158.499 210.6C160.359 209.809 162.203 208.975 164.037 208.09C193.516 193.871 221.073 164.225 216.186 130.037C211.319 95.989 175.672 78.2902 144.61 76.2542C105.518 73.6917 66.3661 90.3187 44.8608 118.612C24.2698 145.704 26.0743 179.155 49.2469 199.965C52.1723 202.565 55.3553 204.95 58.7044 207.054C85.608 223.946 124.199 225.18 158.499 210.6Z" fill="#FA6D01"/>
<path d="M88.5291 86.2751C93.2703 84.2597 98.1871 82.5235 103.246 81.0878C121.961 75.7732 141.344 74.9329 159.302 78.6619C175.688 82.0635 190.397 89.9152 200.719 100.77C211.887 112.515 217.164 126.801 215.978 142.086C214.744 158.027 207.081 173.446 193.82 186.678C181.95 198.523 165.979 208.149 148.848 213.785C131.79 219.399 112.972 221.336 95.8606 219.241C76.749 216.9 60.3 209.677 48.2942 198.352C45.5045 195.692 43.0296 192.874 40.9337 189.975C31.9252 177.507 28.9353 162.659 32.2827 147.038C35.3155 132.888 43.4148 119 55.0887 107.934C64.5225 98.9909 75.9009 91.6411 88.5272 86.2756L88.5291 86.2751ZM157.98 210.19C186.32 198.145 213.368 173.764 215.824 142.075C218.525 107.229 188.4 84.8491 159.267 78.8019C122.776 71.2271 81.929 82.7012 55.2012 108.036C34.2533 127.893 20.8947 161.978 41.0622 189.894C43.1512 192.786 45.6218 195.598 48.4052 198.251C76.5038 224.753 120.047 223.11 148.797 213.65C151.852 212.644 154.926 211.488 157.98 210.19Z" fill="#FA6D01"/>
</svg>
